<svg xmlns="http://www.w3.org/2000/svg" version="1.1" xmlns:xlink="http://www.w3.org/1999/xlink" xmlns:svgjs="http://svgjs.dev/svgjs" viewBox="0 0 1920 1080"><rect width="1920" height="1080" fill="#307fe2"></rect><g transform="matrix(1.15,0,0,1.15,-139.46734542846661,-81)"><path d="M0,-1080C21.195482816830946,-1017.6960095641329,115.3059173237175,-849.2834262518454,127.17289690098568,-706.1760573847969C139.03987647825386,-563.0686885177483,102.42920680226702,-410.1521132725394,71.2018774636091,-221.35578679770867C39.97454812495117,-32.559460322877925,-66.18946805852453,271.8458183600808,-60.19107913096184,426.60190146418773C-54.19269020339916,581.3579845682947,87.84360248842161,563.6602289060123,107.19221102898518,707.1807118269328C126.54081956954876,850.7011947478533,76.80900888378555,1113.078986219248,55.90057211241958,1287.7247989897107C34.99213534105361,1462.3706117601735,-8.941647580474012,1609.676388281328,-18.25840959921061,1755.0555884497094C-27.575171617947206,1900.4347886180908,-3.0430682665351014,2092.509264741618,0,2160L 1920 2160 L 1920 -1080 Z" fill="url(&quot;#SvgjsLinearGradient1213&quot;)"></path><path d="M320,-1080C326.2216393324791,-1010.2420102216953,377.69503895642805,-796.4750971818231,357.32983599487466,-661.4520613301715C336.96463303332126,-526.42902547852,210.04806648441559,-420.0281277960157,197.80878223067975,-269.86178489009063C185.56949797694392,-119.69544198416557,260.2595939705389,100.52705559780858,283.89413047245966,239.54599610537883C307.5286669743804,378.56493661294905,336.97227103737197,434.81845257031307,339.61600124220433,564.2518581553309C342.2597314470367,693.6852637403487,308.82082843274,896.9798303410785,299.7565117014538,1016.1464296154858C290.69219497016763,1135.313028889893,283.335652508913,1167.0335927150943,285.2301008544874,1279.2514538017745C287.1245492000618,1391.4693148884546,305.3282185839814,1542.6621717691955,311.12320177490017,1689.4535961355664C316.9181849658189,1836.2450205019372,318.52053362915,2081.575599355928,320,2160L 1920 2160 L 1920 -1080 Z" fill="url(&quot;#SvgjsLinearGradient1214&quot;)"></path><path d="M640,-1080C645.8068642648489,-954.5882666272814,673.0584669283663,-559.7378034759975,674.8411855890931,-327.5295997636884C676.6239042498199,-95.32139605137931,666.8587662088166,131.64971637720848,650.696311964361,313.24922227385446C634.5338577199054,494.8487281705004,577.8283738468571,577.9165862958457,577.8664601223593,762.0674356161876C577.9045463978615,946.2182849365295,640.5692396377676,1185.1655574652702,650.9248296173744,1418.1543181959057C661.2804195969811,1651.1430789265412,641.820804936229,2036.359053032651,640,2160L 1920 2160 L 1920 -1080 Z" fill="url(&quot;#SvgjsLinearGradient1215&quot;)"></path><path d="M960,-1080C969.492580912131,-945.20335475514,1026.319852602452,-527.6559505317616,1016.9554854727857,-271.2201285308405C1007.5911183431192,-14.784306529919377,899.0532615902797,186.8808183486624,903.8137972220013,458.61493200552667C908.5743328537229,730.349045662391,1036.1543321334489,1075.6203754112662,1045.5186992631152,1359.184553410345C1054.8830663927815,1642.7487314094237,974.2531165438526,2026.530758901724,960,2160L 1920 2160 L 1920 -1080 Z" fill="url(&quot;#SvgjsLinearGradient1216&quot;)"></path><path d="M1280,-1080C1298.6108545090744,-986.929890848124,1403.3707633168797,-694.9212332708335,1391.6651270544467,-521.5793450887443C1379.9594907920136,-348.2374569066551,1219.5531598140622,-238.0752784579784,1209.766182425402,-39.9486709074651C1199.9792050367416,158.1779366430482,1328.4256649879912,492.4474275717098,1332.9432627224855,667.1803002143356C1337.4608604569798,841.9131728569614,1225.3656665859194,848.1710980651686,1236.8717688323675,1008.44856494829C1248.3778710788156,1168.7260318314113,1394.7918376732362,1436.9198623377788,1401.9798762011749,1628.8451015130638C1409.1679147291136,1820.7703406883488,1300.3299793668625,2071.4741835855107,1280,2160L 1920 2160 L 1920 -1080 Z" fill="url(&quot;#SvgjsLinearGradient1217&quot;)"></path><path d="M1600,-1080C1585.6297503065496,-999.219409691049,1527.2946884948183,-749.9322059489945,1513.7785018392974,-595.316458146294C1500.2623151837765,-440.70071034359364,1484.3225914259383,-307.8896408239351,1518.9028800668748,-152.30551318379764C1553.4831687078113,3.2786144563397954,1724.9297084200066,193.20499422575278,1721.2602336849163,338.1883076945305C1717.590758949826,483.17162116330826,1511.5421157720025,561.871659900652,1496.8860316563328,717.5943676288688C1482.229947540663,873.3170753570855,1636.3569447220757,1093.8880571152945,1633.3237289908975,1272.5245540638311C1630.2905132597193,1451.1610510123678,1484.2406921010793,1641.5007749973934,1478.686737269263,1789.4133493200882C1473.1327824374466,1937.325923642783,1579.7811228782105,2098.235558220015,1600,2160L 1920 2160 L 1920 -1080 Z" fill="url(&quot;#SvgjsLinearGradient1218&quot;)"></path></g><defs><linearGradient x1="0.1" y1="0" x2="0" y2="1" id="SvgjsLinearGradient1213"><stop stop-color="#307fe2" offset="0"></stop><stop stop-color="#309de2" offset="0"></stop></linearGradient><linearGradient x1="0.1" y1="0" x2="0" y2="1" id="SvgjsLinearGradient1214"><stop stop-color="#5998e8" offset="0"></stop><stop stop-color="#59b0e8" offset="0.16666666666666666"></stop></linearGradient><linearGradient x1="0.1" y1="0" x2="0" y2="1" id="SvgjsLinearGradient1215"><stop stop-color="#82b2ed" offset="0"></stop><stop stop-color="#82c4ed" offset="0.3333333333333333"></stop></linearGradient><linearGradient x1="0.1" y1="0" x2="0" y2="1" id="SvgjsLinearGradient1216"><stop stop-color="#abcbf3" offset="0"></stop><stop stop-color="#abd7f3" offset="0.5"></stop></linearGradient><linearGradient x1="0.1" y1="0" x2="0" y2="1" id="SvgjsLinearGradient1217"><stop stop-color="#d4e4f9" offset="0"></stop><stop stop-color="#d4eaf9" offset="0.6666666666666666"></stop></linearGradient><linearGradient x1="0.1" y1="0" x2="0" y2="1" id="SvgjsLinearGradient1218"><stop stop-color="#fdfeff" offset="0"></stop><stop stop-color="#fdfeff" offset="0.8333333333333334"></stop></linearGradient></defs></svg>